<mxfile host="app.diagrams.net" modified="2020-12-08T13:53:49.152Z" agent="5.0 (Windows NT 10.0; Win64; x64) AppleWebKit/537.36 (KHTML, like Gecko) Chrome/87.0.4280.88 Safari/537.36" etag="RmHxdJH2k2fJs_3itYVH" version="13.11.0" type="github">
  <diagram id="M1ERxTFF8h_4hk06qJpR" name="Page-1">
    <mxGraphModel dx="868" dy="450" grid="1" gridSize="10" guides="1" tooltips="1" connect="1" arrows="1" fold="1" page="1" pageScale="1" pageWidth="827" pageHeight="1169" math="0" shadow="0">
      <root>
        <mxCell id="0" />
        <mxCell id="1" parent="0" />
        <mxCell id="tcikPRL9s8DYcc3W4jiJ-10" value="User" style="shape=umlActor;verticalLabelPosition=bottom;verticalAlign=top;html=1;outlineConnect=0;" vertex="1" parent="1">
          <mxGeometry x="797" y="530" width="30" height="60" as="geometry" />
        </mxCell>
        <mxCell id="tcikPRL9s8DYcc3W4jiJ-12" value="Employee details" style="text;html=1;align=center;verticalAlign=middle;resizable=0;points=[];autosize=1;" vertex="1" parent="1">
          <mxGeometry x="315" y="200" width="110" height="20" as="geometry" />
        </mxCell>
        <mxCell id="tcikPRL9s8DYcc3W4jiJ-13" value="System Engineer" style="shape=umlActor;verticalLabelPosition=bottom;verticalAlign=top;html=1;outlineConnect=0;" vertex="1" parent="1">
          <mxGeometry x="60" y="320" width="30" height="60" as="geometry" />
        </mxCell>
        <mxCell id="tcikPRL9s8DYcc3W4jiJ-19" value="&lt;p style=&quot;margin: 0px ; margin-top: 4px ; text-align: center&quot;&gt;&lt;br&gt;&lt;b&gt;Address&lt;/b&gt;&lt;/p&gt;&lt;p style=&quot;margin: 0px ; margin-top: 4px ; text-align: center&quot;&gt;&lt;b&gt;&amp;nbsp;String lineOne;&lt;/b&gt;&lt;/p&gt;&lt;p style=&quot;margin: 0px ; margin-top: 4px ; text-align: center&quot;&gt;&lt;b&gt;&amp;nbsp; &amp;nbsp; String lineTwo;&lt;/b&gt;&lt;/p&gt;&lt;p style=&quot;margin: 0px ; margin-top: 4px ; text-align: center&quot;&gt;&lt;b&gt;&amp;nbsp; &amp;nbsp; String pinCode;&lt;/b&gt;&lt;/p&gt;&lt;p style=&quot;margin: 0px ; margin-top: 4px ; text-align: center&quot;&gt;&lt;b&gt;&amp;nbsp; &amp;nbsp; String city;&lt;/b&gt;&lt;/p&gt;&lt;p style=&quot;margin: 0px ; margin-top: 4px ; text-align: center&quot;&gt;&lt;b&gt;&amp;nbsp; &amp;nbsp; String state;&lt;/b&gt;&lt;/p&gt;&lt;p style=&quot;margin: 0px ; margin-top: 4px ; text-align: center&quot;&gt;&lt;/p&gt;&lt;p style=&quot;margin: 0px ; margin-top: 4px ; text-align: center&quot;&gt;&lt;b&gt;&amp;nbsp; &amp;nbsp; String country;&lt;/b&gt;&lt;/p&gt;" style="verticalAlign=top;align=left;overflow=fill;fontSize=12;fontFamily=Helvetica;html=1;" vertex="1" parent="1">
          <mxGeometry x="395" y="440" width="140" height="150" as="geometry" />
        </mxCell>
        <mxCell id="tcikPRL9s8DYcc3W4jiJ-25" value="&lt;p style=&quot;margin: 0px ; margin-top: 4px ; text-align: center&quot;&gt;&lt;br&gt;&lt;b&gt;Identification&lt;/b&gt;&lt;/p&gt;&lt;p style=&quot;margin: 0px ; margin-top: 4px ; text-align: center&quot;&gt;&lt;b&gt;&amp;nbsp;String proofName;&lt;/b&gt;&lt;/p&gt;&lt;p style=&quot;margin: 0px ; margin-top: 4px ; text-align: center&quot;&gt;&lt;/p&gt;&lt;p style=&quot;margin: 0px ; margin-top: 4px ; text-align: center&quot;&gt;&lt;b&gt;&amp;nbsp; &amp;nbsp; &amp;nbsp;String proofNumber;&lt;/b&gt;&lt;/p&gt;&lt;p style=&quot;margin: 0px ; margin-top: 4px ; text-align: center&quot;&gt;&lt;b&gt;&lt;br&gt;&lt;/b&gt;&lt;/p&gt;" style="verticalAlign=top;align=left;overflow=fill;fontSize=12;fontFamily=Helvetica;html=1;" vertex="1" parent="1">
          <mxGeometry x="490" y="765" width="140" height="100" as="geometry" />
        </mxCell>
        <mxCell id="tcikPRL9s8DYcc3W4jiJ-26" value="&lt;p style=&quot;margin: 0px ; margin-top: 4px ; text-align: center&quot;&gt;Main.java&lt;/p&gt;&lt;p style=&quot;margin: 0px ; margin-top: 4px ; text-align: center&quot;&gt;employee=new employee()&lt;/p&gt;" style="verticalAlign=top;align=left;overflow=fill;fontSize=12;fontFamily=Helvetica;html=1;" vertex="1" parent="1">
          <mxGeometry x="140" y="380" width="150" height="70" as="geometry" />
        </mxCell>
        <mxCell id="tcikPRL9s8DYcc3W4jiJ-27" value="&lt;p style=&quot;margin: 0px ; margin-top: 4px ; text-align: center&quot;&gt;&lt;br&gt;&lt;b&gt;Contact.java&lt;/b&gt;&lt;/p&gt;&lt;p style=&quot;margin: 0px ; margin-top: 4px ; text-align: center&quot;&gt;&lt;b&gt;&amp;nbsp;String phoneNumber;&lt;/b&gt;&lt;/p&gt;&lt;p style=&quot;margin: 0px ; margin-top: 4px ; text-align: center&quot;&gt;&lt;b&gt;&amp;nbsp; &amp;nbsp; String alternateNumber;&lt;/b&gt;&lt;/p&gt;&lt;p style=&quot;margin: 0px ; margin-top: 4px ; text-align: center&quot;&gt;&lt;/p&gt;&lt;p style=&quot;margin: 0px ; margin-top: 4px ; text-align: center&quot;&gt;&lt;b&gt;&amp;nbsp; &amp;nbsp; &amp;nbsp;String whatsappNumber;&lt;/b&gt;&lt;/p&gt;&lt;p style=&quot;margin: 0px ; margin-top: 4px ; text-align: center&quot;&gt;&lt;b&gt;&lt;br&gt;&lt;/b&gt;&lt;/p&gt;" style="verticalAlign=top;align=left;overflow=fill;fontSize=12;fontFamily=Helvetica;html=1;" vertex="1" parent="1">
          <mxGeometry x="290" y="750" width="150" height="130" as="geometry" />
        </mxCell>
        <mxCell id="tcikPRL9s8DYcc3W4jiJ-28" value="&lt;p style=&quot;margin: 0px ; margin-top: 4px ; text-align: center&quot;&gt;&lt;br&gt;&lt;b&gt;Skills.java&lt;/b&gt;&lt;/p&gt;&lt;p style=&quot;margin: 0px ; margin-top: 4px ; text-align: center&quot;&gt;&lt;b&gt;&amp;nbsp;String skillName;&lt;/b&gt;&lt;/p&gt;&lt;p style=&quot;margin: 0px ; margin-top: 4px ; text-align: center&quot;&gt;&lt;b&gt;&amp;nbsp; &amp;nbsp; &amp;nbsp;String expertiseLevel;&lt;/b&gt;&lt;/p&gt;&lt;p style=&quot;margin: 0px ; margin-top: 4px ; text-align: center&quot;&gt;&lt;/p&gt;&lt;p style=&quot;margin: 0px ; margin-top: 4px ; text-align: center&quot;&gt;&lt;b&gt;&amp;nbsp; &amp;nbsp; String years;&lt;/b&gt;&lt;/p&gt;&lt;p style=&quot;margin: 0px ; margin-top: 4px ; text-align: center&quot;&gt;&lt;b&gt;&lt;br&gt;&lt;/b&gt;&lt;/p&gt;" style="verticalAlign=top;align=left;overflow=fill;fontSize=12;fontFamily=Helvetica;html=1;" vertex="1" parent="1">
          <mxGeometry x="395" y="650" width="140" height="90" as="geometry" />
        </mxCell>
        <mxCell id="tcikPRL9s8DYcc3W4jiJ-29" value="&lt;p style=&quot;margin: 0px ; margin-top: 4px ; text-align: center&quot;&gt;&lt;br&gt;&lt;b&gt;Awards.java&lt;/b&gt;&lt;/p&gt;&lt;p style=&quot;margin: 0px ; margin-top: 4px ; text-align: center&quot;&gt;&lt;b&gt;String dateOfAward;&lt;/b&gt;&lt;/p&gt;&lt;p style=&quot;margin: 0px ; margin-top: 4px ; text-align: center&quot;&gt;&lt;b&gt;&amp;nbsp; &amp;nbsp; &amp;nbsp;String description;&lt;/b&gt;&lt;/p&gt;&lt;p style=&quot;margin: 0px ; margin-top: 4px ; text-align: center&quot;&gt;&lt;b&gt;&amp;nbsp; &amp;nbsp; &amp;nbsp;String organization;&lt;/b&gt;&lt;/p&gt;&lt;p style=&quot;margin: 0px ; margin-top: 4px ; text-align: center&quot;&gt;&lt;/p&gt;&lt;p style=&quot;margin: 0px ; margin-top: 4px ; text-align: center&quot;&gt;&lt;b&gt;&amp;nbsp; &amp;nbsp; String awardName;&lt;/b&gt;&lt;/p&gt;" style="verticalAlign=top;align=left;overflow=fill;fontSize=12;fontFamily=Helvetica;html=1;" vertex="1" parent="1">
          <mxGeometry x="410" y="300" width="140" height="130" as="geometry" />
        </mxCell>
        <mxCell id="tcikPRL9s8DYcc3W4jiJ-31" value="&lt;p style=&quot;margin: 0px ; margin-top: 4px ; text-align: center&quot;&gt;&lt;br&gt;&lt;b&gt;Employee.java&lt;/b&gt;&lt;/p&gt;&lt;p style=&quot;margin: 0px ; margin-top: 4px ; text-align: center&quot;&gt;&lt;b&gt;String fullName;&lt;/b&gt;&lt;/p&gt;&lt;p style=&quot;margin: 0px ; margin-top: 4px ; text-align: center&quot;&gt;&lt;b&gt;&amp;nbsp;String designation;&lt;/b&gt;&lt;/p&gt;&lt;p style=&quot;margin: 0px ; margin-top: 4px ; text-align: center&quot;&gt;&lt;b&gt;&amp;nbsp;String dob;&lt;/b&gt;&lt;/p&gt;&lt;p style=&quot;margin: 0px ; margin-top: 4px ; text-align: center&quot;&gt;&lt;b&gt;&amp;nbsp;String experience;&lt;/b&gt;&lt;/p&gt;&lt;p style=&quot;margin: 0px ; margin-top: 4px ; text-align: center&quot;&gt;&lt;b&gt;&amp;nbsp;String role;&lt;/b&gt;&lt;/p&gt;&lt;p style=&quot;margin: 0px ; margin-top: 4px ; text-align: center&quot;&gt;&lt;b&gt;&amp;nbsp;String dateOfJoining;&lt;/b&gt;&lt;/p&gt;&lt;p style=&quot;margin: 0px ; margin-top: 4px ; text-align: center&quot;&gt;&lt;b&gt;&amp;nbsp;String reportingManager;&lt;/b&gt;&lt;/p&gt;&lt;p style=&quot;margin: 0px ; margin-top: 4px ; text-align: center&quot;&gt;&lt;b&gt;&amp;nbsp;String fatherName;&lt;/b&gt;&lt;/p&gt;&lt;p style=&quot;margin: 0px ; margin-top: 4px ; text-align: center&quot;&gt;&lt;b&gt;&amp;nbsp;String empId;&lt;/b&gt;&lt;/p&gt;&lt;p style=&quot;margin: 0px ; margin-top: 4px ; text-align: center&quot;&gt;&lt;b&gt;&amp;nbsp;String maritalStatus;&lt;/b&gt;&lt;/p&gt;&lt;p style=&quot;margin: 0px ; margin-top: 4px ; text-align: center&quot;&gt;&lt;b&gt;&amp;nbsp;List&amp;lt;Awards&amp;gt; awards;&lt;/b&gt;&lt;/p&gt;&lt;p style=&quot;margin: 0px ; margin-top: 4px ; text-align: center&quot;&gt;&lt;/p&gt;&lt;p style=&quot;margin: 0px ; margin-top: 4px ; text-align: center&quot;&gt;&lt;b&gt;List&amp;lt;Skills&amp;gt; skills;&lt;/b&gt;&lt;/p&gt;&lt;div style=&quot;text-align: center&quot;&gt;&lt;br&gt;&lt;/div&gt;" style="verticalAlign=top;align=left;overflow=fill;fontSize=12;fontFamily=Helvetica;html=1;" vertex="1" parent="1">
          <mxGeometry x="140" y="480" width="140" height="300" as="geometry" />
        </mxCell>
        <mxCell id="tcikPRL9s8DYcc3W4jiJ-36" value="dispatch" style="html=1;verticalAlign=bottom;startArrow=circle;startFill=1;endArrow=open;startSize=6;endSize=8;entryX=-0.036;entryY=0.037;entryDx=0;entryDy=0;entryPerimeter=0;" edge="1" parent="1" target="tcikPRL9s8DYcc3W4jiJ-31">
          <mxGeometry x="-0.8235" y="12" width="80" relative="1" as="geometry">
            <mxPoint x="90" y="354" as="sourcePoint" />
            <mxPoint x="180" y="360" as="targetPoint" />
            <Array as="points" />
            <mxPoint as="offset" />
          </mxGeometry>
        </mxCell>
        <mxCell id="tcikPRL9s8DYcc3W4jiJ-37" value="1" style="endArrow=open;html=1;endSize=12;startArrow=diamondThin;startSize=14;startFill=1;edgeStyle=orthogonalEdgeStyle;align=left;verticalAlign=bottom;entryX=0.5;entryY=0;entryDx=0;entryDy=0;" edge="1" parent="1" target="tcikPRL9s8DYcc3W4jiJ-26">
          <mxGeometry x="-1" y="3" relative="1" as="geometry">
            <mxPoint x="100" y="370" as="sourcePoint" />
            <mxPoint x="510" y="540" as="targetPoint" />
            <Array as="points">
              <mxPoint x="100" y="350" />
              <mxPoint x="215" y="350" />
            </Array>
          </mxGeometry>
        </mxCell>
        <mxCell id="tcikPRL9s8DYcc3W4jiJ-39" value="dispatch" style="html=1;verticalAlign=bottom;endArrow=block;" edge="1" parent="1">
          <mxGeometry width="80" relative="1" as="geometry">
            <mxPoint x="100" y="360" as="sourcePoint" />
            <mxPoint x="390" y="520" as="targetPoint" />
          </mxGeometry>
        </mxCell>
        <mxCell id="tcikPRL9s8DYcc3W4jiJ-40" value="dispatch" style="html=1;verticalAlign=bottom;endArrow=block;" edge="1" parent="1">
          <mxGeometry width="80" relative="1" as="geometry">
            <mxPoint x="100" y="360" as="sourcePoint" />
            <mxPoint x="380" y="680" as="targetPoint" />
          </mxGeometry>
        </mxCell>
        <mxCell id="tcikPRL9s8DYcc3W4jiJ-41" value="dispatch" style="html=1;verticalAlign=bottom;endArrow=block;entryX=0.25;entryY=0;entryDx=0;entryDy=0;" edge="1" parent="1" target="tcikPRL9s8DYcc3W4jiJ-27">
          <mxGeometry width="80" relative="1" as="geometry">
            <mxPoint x="100" y="360" as="sourcePoint" />
            <mxPoint x="350" y="730" as="targetPoint" />
          </mxGeometry>
        </mxCell>
        <mxCell id="tcikPRL9s8DYcc3W4jiJ-42" value="" style="html=1;verticalAlign=bottom;endArrow=block;" edge="1" parent="1">
          <mxGeometry width="80" relative="1" as="geometry">
            <mxPoint x="100" y="360" as="sourcePoint" />
            <mxPoint x="590" y="760" as="targetPoint" />
          </mxGeometry>
        </mxCell>
        <mxCell id="tcikPRL9s8DYcc3W4jiJ-43" value="" style="html=1;verticalAlign=bottom;endArrow=block;entryX=0;entryY=0.5;entryDx=0;entryDy=0;" edge="1" parent="1" target="tcikPRL9s8DYcc3W4jiJ-29">
          <mxGeometry width="80" relative="1" as="geometry">
            <mxPoint x="100" y="360" as="sourcePoint" />
            <mxPoint x="310" y="370" as="targetPoint" />
          </mxGeometry>
        </mxCell>
        <mxCell id="tcikPRL9s8DYcc3W4jiJ-44" value="" style="html=1;verticalAlign=bottom;endArrow=block;exitX=0.42;exitY=1.014;exitDx=0;exitDy=0;exitPerimeter=0;" edge="1" parent="1" source="tcikPRL9s8DYcc3W4jiJ-26">
          <mxGeometry width="80" relative="1" as="geometry">
            <mxPoint x="390" y="540" as="sourcePoint" />
            <mxPoint x="203" y="480" as="targetPoint" />
          </mxGeometry>
        </mxCell>
        <mxCell id="tcikPRL9s8DYcc3W4jiJ-45" value="" style="html=1;verticalAlign=bottom;endArrow=block;exitX=0.947;exitY=1.014;exitDx=0;exitDy=0;exitPerimeter=0;" edge="1" parent="1" source="tcikPRL9s8DYcc3W4jiJ-26">
          <mxGeometry width="80" relative="1" as="geometry">
            <mxPoint x="390" y="560" as="sourcePoint" />
            <mxPoint x="390" y="500" as="targetPoint" />
          </mxGeometry>
        </mxCell>
        <mxCell id="tcikPRL9s8DYcc3W4jiJ-46" value="" style="html=1;verticalAlign=bottom;endArrow=block;exitX=1;exitY=1;exitDx=0;exitDy=0;entryX=0.007;entryY=0.589;entryDx=0;entryDy=0;entryPerimeter=0;" edge="1" parent="1" source="tcikPRL9s8DYcc3W4jiJ-26" target="tcikPRL9s8DYcc3W4jiJ-28">
          <mxGeometry width="80" relative="1" as="geometry">
            <mxPoint x="390" y="560" as="sourcePoint" />
            <mxPoint x="470" y="560" as="targetPoint" />
          </mxGeometry>
        </mxCell>
        <mxCell id="tcikPRL9s8DYcc3W4jiJ-47" value="" style="html=1;verticalAlign=bottom;endArrow=block;exitX=0.35;exitY=1.007;exitDx=0;exitDy=0;exitPerimeter=0;" edge="1" parent="1" source="tcikPRL9s8DYcc3W4jiJ-31">
          <mxGeometry width="80" relative="1" as="geometry">
            <mxPoint x="390" y="560" as="sourcePoint" />
            <mxPoint x="280" y="820" as="targetPoint" />
          </mxGeometry>
        </mxCell>
        <mxCell id="tcikPRL9s8DYcc3W4jiJ-48" value="" style="html=1;verticalAlign=bottom;endArrow=block;entryX=-0.036;entryY=0.407;entryDx=0;entryDy=0;entryPerimeter=0;exitX=1;exitY=1;exitDx=0;exitDy=0;" edge="1" parent="1" source="tcikPRL9s8DYcc3W4jiJ-26" target="tcikPRL9s8DYcc3W4jiJ-25">
          <mxGeometry width="80" relative="1" as="geometry">
            <mxPoint x="390" y="700" as="sourcePoint" />
            <mxPoint x="470" y="700" as="targetPoint" />
          </mxGeometry>
        </mxCell>
        <mxCell id="tcikPRL9s8DYcc3W4jiJ-49" value="Server" style="verticalAlign=top;align=left;spacingTop=8;spacingLeft=2;spacingRight=12;shape=cube;size=10;direction=south;fontStyle=4;html=1;" vertex="1" parent="1">
          <mxGeometry x="680" y="605" width="80" height="50" as="geometry" />
        </mxCell>
        <mxCell id="tcikPRL9s8DYcc3W4jiJ-50" value="" style="html=1;points=[];perimeter=orthogonalPerimeter;fillColor=#000000;strokeColor=none;" vertex="1" parent="1">
          <mxGeometry x="660" y="280" width="5" height="610" as="geometry" />
        </mxCell>
        <mxCell id="tcikPRL9s8DYcc3W4jiJ-51" value="" style="html=1;points=[];perimeter=orthogonalPerimeter;fillColor=#000000;strokeColor=none;" vertex="1" parent="1">
          <mxGeometry x="430" y="380" height="80" as="geometry" />
        </mxCell>
        <mxCell id="tcikPRL9s8DYcc3W4jiJ-52" value="" style="line;strokeWidth=1;fillColor=none;align=left;verticalAlign=middle;spacingTop=-1;spacingLeft=3;spacingRight=3;rotatable=0;labelPosition=right;points=[];portConstraint=eastwest;" vertex="1" parent="1">
          <mxGeometry x="120" y="272" width="540" height="8" as="geometry" />
        </mxCell>
        <mxCell id="tcikPRL9s8DYcc3W4jiJ-53" value="" style="html=1;points=[];perimeter=orthogonalPerimeter;fillColor=#000000;strokeColor=none;" vertex="1" parent="1">
          <mxGeometry x="115" y="280" width="5" height="620" as="geometry" />
        </mxCell>
        <mxCell id="tcikPRL9s8DYcc3W4jiJ-54" value="" style="line;strokeWidth=1;fillColor=none;align=left;verticalAlign=middle;spacingTop=-1;spacingLeft=3;spacingRight=3;rotatable=0;labelPosition=right;points=[];portConstraint=eastwest;" vertex="1" parent="1">
          <mxGeometry x="110" y="890" width="550" height="8" as="geometry" />
        </mxCell>
        <mxCell id="tcikPRL9s8DYcc3W4jiJ-55" value="dispatch" style="html=1;verticalAlign=bottom;startArrow=circle;startFill=1;endArrow=open;startSize=6;endSize=8;exitX=-0.6;exitY=0.47;exitDx=0;exitDy=0;exitPerimeter=0;entryX=0;entryY=0;entryDx=30;entryDy=80;entryPerimeter=0;" edge="1" parent="1" source="tcikPRL9s8DYcc3W4jiJ-50" target="tcikPRL9s8DYcc3W4jiJ-49">
          <mxGeometry width="80" relative="1" as="geometry">
            <mxPoint x="390" y="610" as="sourcePoint" />
            <mxPoint x="470" y="610" as="targetPoint" />
          </mxGeometry>
        </mxCell>
        <mxCell id="tcikPRL9s8DYcc3W4jiJ-57" value="dispatch" style="html=1;verticalAlign=bottom;endArrow=block;exitX=0;exitY=0;exitDx=20;exitDy=0;exitPerimeter=0;" edge="1" parent="1" source="tcikPRL9s8DYcc3W4jiJ-49" target="tcikPRL9s8DYcc3W4jiJ-10">
          <mxGeometry width="80" relative="1" as="geometry">
            <mxPoint x="390" y="600" as="sourcePoint" />
            <mxPoint x="470" y="600" as="targetPoint" />
          </mxGeometry>
        </mxCell>
        <mxCell id="tcikPRL9s8DYcc3W4jiJ-58" value="" style="html=1;verticalAlign=bottom;endArrow=block;exitX=1;exitY=0.5;exitDx=0;exitDy=0;" edge="1" parent="1" source="tcikPRL9s8DYcc3W4jiJ-26" target="tcikPRL9s8DYcc3W4jiJ-29">
          <mxGeometry width="80" relative="1" as="geometry">
            <mxPoint x="390" y="530" as="sourcePoint" />
            <mxPoint x="470" y="530" as="targetPoint" />
          </mxGeometry>
        </mxCell>
        <mxCell id="tcikPRL9s8DYcc3W4jiJ-59" value="Text" style="edgeLabel;html=1;align=center;verticalAlign=middle;resizable=0;points=[];" vertex="1" connectable="0" parent="tcikPRL9s8DYcc3W4jiJ-58">
          <mxGeometry x="0.3651" y="4" relative="1" as="geometry">
            <mxPoint y="1" as="offset" />
          </mxGeometry>
        </mxCell>
      </root>
    </mxGraphModel>
  </diagram>
</mxfile>
